<svg width="108" height="95" viewBox="0 0 108 95" fill="none" xmlns="http://www.w3.org/2000/svg">
<path fill-rule="evenodd" clip-rule="evenodd" d="M99.1789 45.962C109.645 57.3876 109.648 74.9152 99.1869 86.345C94.3204 91.668 87.4399 94.6995 80.2276 94.6984C73.0153 94.6973 66.1358 91.6636 61.2709 86.339C44.4439 68.439 62.0269 43.704 35.4709 38.053C31.0539 37.112 26.4809 35.828 23.3489 32.486C16.3659 24.8735 16.3625 13.1856 23.3409 5.56899C26.5845 2.01966 31.1715 -0.00150582 35.9797 1.61177e-05C40.7879 0.00153805 45.3736 2.02561 48.6149 5.57699C51.7539 8.92299 52.9569 13.798 53.8389 18.495C59.1469 46.781 82.3779 28.043 99.1789 45.962Z" fill="white"/>
<path fill-rule="evenodd" clip-rule="evenodd" d="M18.955 87.062C29.4236 87.062 37.91 79.1218 37.91 69.327C37.91 59.5322 29.4236 51.592 18.955 51.592C8.48644 51.592 0 59.5322 0 69.327C0 79.1218 8.48644 87.062 18.955 87.062Z" fill="#0057FF"/>
</svg>
